<?xml version="1.0" encoding="utf-8"?>
<!-- Generator: Adobe Illustrator 26.0.3, SVG Export Plug-In . SVG Version: 6.00 Build 0)  -->
<svg version="1.1" id="Layer_1" xmlns="http://www.w3.org/2000/svg" xmlns:xlink="http://www.w3.org/1999/xlink" x="0px" y="0px"
	 viewBox="0 0 1440 1440" style="enable-background:new 0 0 1440 1440;" xml:space="preserve">
<style type="text/css">
	.st0{fill:none;stroke:#FFFFFF;stroke-width:3.9801;stroke-miterlimit:10;}
	.st1{fill:none;stroke:#00776D;stroke-width:3.0078;stroke-miterlimit:10;}
	.st2{fill:none;stroke:#00776D;stroke-width:3.1807;stroke-miterlimit:10;}
	.st3{fill:none;}
	.st4{fill:#00776C;}
	.st5{fill:#00776D;}
	.st6{font-family:'LibreBaskerville-Regular';}
	.st7{font-size:28.4438px;}
	.st8{letter-spacing:1;}
	.st9{fill:none;stroke:#00776D;stroke-width:3.481;stroke-miterlimit:10;}
	.st10{fill:none;stroke:#00776D;stroke-width:3.9801;stroke-miterlimit:10;}
</style>
<g>
	<path class="st0" d="M664.9,654.12c2.31-12.89,6-22.44,8.84-28.6c6.08-13.19,14.04-23.43,14.4-23.88
		c6.8-8.65,10.58-10.69,13.13-17.98c2.47-7.05,2.04-14,1.26-18.87c-0.45,4.98-1.68,12.25-5.56,19.46
		c-4.42,8.23-8.29,8.93-16.42,18.87c-4.93,6.02-10.63,13-13.89,23.29C665.1,631.36,662.89,640.89,664.9,654.12z"/>
	<circle class="st1" cx="720" cy="720" r="518.84"/>
	<circle class="st2" cx="721.99" cy="720" r="427.09"/>
	<path id="SVGID_x5F_1_x5F_" class="st3" d="M346.39,928.61C220.8,722.28,286.26,453.2,492.6,327.61s475.42-60.13,601.01,146.21
		c125.59,206.34,60.13,475.42-146.21,601.01S471.98,1134.95,346.39,928.61z"/>
	<text>	<textPath  xlink:href="#SVGID_x5F_1_x5F_" startOffset="14.5833%">
<tspan  class="st4" style="font-family:'LibreBaskerville-Bold'; font-size:48.7975px; letter-spacing:50;">Termiz davlat pedagogika instituti</tspan>	</textPath>
</text>
	<path id="SVGID_x5F_00000091710738371472791570000007933720777686578606_x5F_" class="st3" d="M421.73,1048.39
		c-177.32-164.03-188.08-440.75-24.05-618.07s440.75-188.08,618.07-24.05s188.08,440.75,24.05,618.07S599.04,1212.42,421.73,1048.39
		z"/>
	<text>	<textPath  xlink:href="#SVGID_x5F_00000091710738371472791570000007933720777686578606_x5F_" startOffset="14.5833%">
<tspan  class="st4" style="font-family:'LibreBaskerville-Bold'; font-size:48.7977px; letter-spacing:50;">Termiz State Pedagogical Institute</tspan>	</textPath>
</text>
	<polygon class="st4" points="1214.95,720.48 1223.94,711.48 1214.95,702.48 1214.95,689.75 1202.22,689.75 1193.22,680.76 
		1184.22,689.75 1171.5,689.75 1171.5,702.48 1162.5,711.48 1171.5,720.48 1171.5,733.2 1184.22,733.2 1193.22,742.2 1202.22,733.2 
		1214.95,733.2 	"/>
	<polygon class="st4" points="273.56,720.48 282.56,711.48 273.56,702.48 273.56,689.75 260.84,689.75 251.84,680.76 242.84,689.75 
		230.12,689.75 230.12,702.48 221.12,711.48 230.12,720.48 230.12,733.2 242.84,733.2 251.84,742.2 260.84,733.2 273.56,733.2 	"/>
	<text transform="matrix(1 0 0 1 632.5044 1112.1786)" class="st5 st6 st7 st8">estd 2022</text>
	<g>
		<g>
			<path class="st9" d="M589.31,759.92c18.21,0.21,39.41,1.68,62.76,5.62c26.54,4.48,49.51,11.08,68.38,17.8
				c20.12-8.04,38.12-12.89,52.46-15.92c4.21-0.89,23.51-4.89,49.65-6.56c11.96-0.76,22.24-0.84,30.21-0.7
				c4.8,21.67,9.72,43.45,14.75,65.34c8.5,36.96,17.17,73.49,25.99,109.6c-23.07,0.86-51.67,3.91-83.6,11.94
				c-36.43,9.17-66.19,22.06-88.52,33.72c-17.79-7.54-37.24-14.93-58.31-21.78c-12.22-3.97-26.03-8.49-43.56-12.65
				c-17.98-4.26-42.99-8.88-73.77-10.54c10.14-40.49,20.21-81,30.21-121.54C580.42,796.14,584.87,778.03,589.31,759.92z"/>
			<path class="st9" d="M576.66,774.91c-13.58,54.8-27.16,109.6-40.75,164.39c8.17,0.98,20.65,2.58,35.83,4.92
				c54.51,8.39,70.87,15.1,76.58,17.56c8.47,3.66,21,9.89,35.13,20.37c-14.28-3.53-32.07-7.53-52.69-11.24
				c-11.82-2.13-29.62-5.29-52.69-7.73c-18.38-1.94-41.94-3.61-69.55-3.51c10.74-33.66,21.3-68.09,31.61-103.27
				c6.62-22.59,12.99-44.97,19.12-67.12c1.02-3.69,3.06-7.07,6.1-9.4c0.02-0.02,0.04-0.03,0.07-0.05
				C569.72,776.56,574.08,775.38,576.66,774.91z"/>
			<path class="st9" d="M864.06,774.91c13.58,54.8,27.16,109.6,40.75,164.39c-8.17,0.98-20.65,2.58-35.83,4.92
				c-54.51,8.39-70.87,15.1-76.58,17.56c-8.47,3.66-21,9.89-35.13,20.37c14.28-3.53,32.07-7.53,52.69-11.24
				c11.82-2.13,29.62-5.29,52.69-7.73c18.38-1.94,41.94-3.61,69.55-3.51c-10.74-33.66-21.3-68.09-31.61-103.27
				c-6.62-22.59-12.99-44.97-19.12-67.12c-1.02-3.69-3.06-7.07-6.1-9.4c-0.02-0.02-0.04-0.03-0.07-0.05
				C871,776.56,866.63,775.38,864.06,774.91z"/>
			<path class="st9" d="M550.9,793.18c-10.74,31.21-21.25,63.69-31.38,97.42c-7.94,26.45-15.26,52.39-22.01,77.75
				c9.67-0.18,23.18-0.29,39.34,0c25.01,0.45,37.9,0.69,55.27,2.81c12.43,1.52,29.56,3.69,51.05,10.3
				c19.75,6.08,35.55,13.55,46.84,19.67c-15.37-1.1-36.37-2.48-61.35-3.75c-23.38-1.18-47.07-2.38-77.28-2.81
				c-21.17-0.3-49.21-0.28-82.43,0.94c8.12-26.95,19.46-62.32,31.85-100.7c22.6-70.02,19.3-60.34,22.31-68.44
				c0,0,3.44-8.74,10.01-20.37c3.39-6,6.98-10.43,12.47-12.12C547.69,793.23,549.58,793.14,550.9,793.18z"/>
			<path class="st9" d="M888.07,793.18c10.74,31.21,21.25,63.69,31.38,97.42c7.94,26.45,15.26,52.39,22.01,77.75
				c-9.67-0.18-23.18-0.29-39.34,0c-25.01,0.45-37.9,0.69-55.27,2.81c-12.43,1.52-29.56,3.69-51.05,10.3
				c-19.75,6.08-35.55,13.55-46.84,19.67c15.37-1.1,36.37-2.48,61.35-3.75c23.38-1.18,47.07-2.38,77.28-2.81
				c21.17-0.3,49.21-0.28,82.43,0.94c-8.12-26.95-19.11-62.44-31.85-100.7c-23.38-70.22-19.39-60.65-22.31-68.44
				c0,0-3.44-8.74-10.01-20.37c-3.39-6-6.98-10.43-12.47-12.12C891.28,793.23,889.39,793.14,888.07,793.18z"/>
		</g>
		<path class="st5" d="M727.52,902.78c5.64-13.14,13.07-21.17,17.89-25.55c7.09-6.45,13.62-9.67,25.98-15.76
			c11.04-5.44,20.61-8.92,27.25-11.07c4.82-1.56,17.84-5.59,35.34-8.09c10.04-1.44,22.59-2.52,37.05-2.13
			c-1.06,4.07-2.79,9.88-5.54,16.61c-10.07,24.64-25.04,39.93-33.64,48.55c-14.38,14.4-26.09,21.13-43.44,31.09
			c-5.77,3.31-16.64,10.48-26.83,9.79c-5.9-0.4-12.45-1.59-15.47-3.12c3.1-4.98,12.96-16.18,20.16-24.56
			c5.36-6.24,9.02-9.59,20.87-21.29c4.59-4.53,11.35-11.25,19.59-19.59c-14.6,7.02-25.26,14.87-32.36,20.87
			c-8.53,7.2-14.51,13.91-19.16,19.16c-4.79,5.41-11.95,15.18-17.89,23c-1.16,1.53-2.37,3.03-3.51,4.58
			c-3.11,4.21-3.38,5.02-5.11,6.49c-1.36,1.16-2,1.34-2.66,2.45c-1.02,1.72-0.91,3.7-0.64,5.11c10.18,0.07,20.37,0.14,30.55,0.21
			c-0.07,4.86-0.14,9.72-0.21,14.58c1.13-0.05,2.76-0.1,4.72-0.07c4.82,0.07,8.08,0.13,10.79,1.14c4.27,1.59,6.53,5.34,8.23,8.23
			c2.99,5.09,4.4,10.58,5.11,24.7c0.75,15.07,1.07,22.71-1.7,28.39c-3.5,7.15-9.15,11.39-12.78,13.63
			c-52.97-0.54-83.54-0.37-89.99,0.57c-0.75,0.11-3.61,0.58-7.1-0.28c-4.87-1.21-8.04-4.37-9.65-5.96c-2.83-2.8-4.58-5.79-5.68-8.23
			c-0.09-14.76-0.19-29.52-0.28-44.29c0.86-2.18,2.66-5.89,6.25-9.37c0.9-0.88,3.93-3.69,8.8-5.68c5.67-2.31,10.78-2.25,13.63-1.99
			c-0.28-5.2-0.57-10.41-0.85-15.61c10.6,0,21.2,0,31.8,0c-0.2-1.15-0.33-2.9,0.28-4.83c0.59-1.86,1.62-3.08,3.12-4.83
			c1.88-2.18,2.61-2.46,3.69-3.69c2.24-2.57,2.73-5.58,3.12-8.23c0.9-6.04-0.32-10.8-0.85-13.63
			C725.47,919.25,725.05,912.2,727.52,902.78z"/>
		<path class="st5" d="M757.36,723.55c3.54-0.75,8.64-2.2,14.21-5.17c12.67-6.75,19.11-16.76,21.97-21.32
			c7.35-11.74,8.99-22.65,10.01-30.04c2.49-17.91-0.97-31.9-2.91-39.41c-5.41-20.98-15.67-36.26-23.26-45.55
			c-2.98,12.97-7.34,22.52-11.31,25.84c-2.57,2.16-5.17,2.58-5.17,2.58c-3.14,0.52-5.84-0.74-6.78-1.29
			c-5.55-3.27-2.42-13.17-5.17-29.72c-1.89-11.36-5.36-18.74-6.14-20.35c-1.5-3.11-5.11-10.46-11.63-16.8
			c-12.47-12.13-28.69-13.88-34.89-14.21c0.99,2.98,2.14,7.3,2.58,12.6c0.32,3.83,0.99,12.99-2.91,21.97
			c-2.67,6.15-6.11,9.04-10.66,13.89c-5.57,5.93-11.57,15.26-23.58,33.92c-10.3,16-15.45,24-16.8,28.43
			c-6.73,22.05,1.76,41.98,2.91,44.58c12.2,27.55,39.35,35.71,43.28,36.82c-1.65-3.96-3.37-9.14-4.36-15.34
			c-1.37-8.63-0.82-16,0-21.16c1.73,1.4,3.56,2.81,5.49,4.2c4.79,3.45,9.5,6.3,14,8.68c2.09,1.11,4.64-0.18,4.95-2.52
			c0.57-4.31,1.11-9.87,1.24-16.33c0.27-12.97-1.34-18.05,0.32-26.81c0.96-5.03,6.21-15.2,12.36-23.74
			c1.37,2.86,2.66,9.69,4.12,15.34c1.72,6.69,6.94,9.45,18.9,23.1c11.91,13.6,13.36,15.2,14.54,19.22c1.98,6.75,1.04,12.96,0,19.87
			C761.48,712.82,759.21,719.21,757.36,723.55z"/>
		<g>
			<path class="st10" d="M595.03,658.36l-50.27,7.89c-0.52,0.08-0.88,0.58-0.8,1.1l1,6.39c0.08,0.52,0.58,0.88,1.1,0.8l50.27-7.89
				c0.52-0.08,0.88-0.58,0.8-1.1l-1-6.39C596.05,658.64,595.55,658.28,595.03,658.36z"/>
			<path class="st10" d="M602.21,555.82l-48.75-28.14c-0.46-0.26-1.05-0.11-1.32,0.35l-3.24,5.61c-0.26,0.46-0.11,1.05,0.35,1.32
				l48.75,28.14c0.46,0.26,1.05,0.11,1.32-0.35l3.24-5.61C602.83,556.67,602.67,556.08,602.21,555.82z"/>
			<path class="st10" d="M674.79,488.1l-19.85-71.87c-0.14-0.51-0.67-0.81-1.18-0.67l-6.24,1.72c-0.51,0.14-0.81,0.67-0.67,1.18
				l19.85,71.87c0.14,0.51,0.67,0.81,1.18,0.67l6.24-1.72C674.63,489.14,674.93,488.61,674.79,488.1z"/>
			<path class="st10" d="M700.51,480.75l-14.57-121.1c-0.06-0.53-0.55-0.9-1.07-0.84l-6.43,0.77c-0.53,0.06-0.9,0.55-0.84,1.07
				l14.57,121.1c0.06,0.53,0.55,0.9,1.07,0.84l6.43-0.77C700.19,481.76,700.57,481.28,700.51,480.75z"/>
			<path class="st10" d="M727.88,481.69V319.76c0-0.53-0.43-0.96-0.96-0.96h-6.47c-0.53,0-0.96,0.43-0.96,0.96v161.92
				c0,0.53,0.43,0.96,0.96,0.96h6.47C727.45,482.65,727.88,482.22,727.88,481.69z"/>
			<path class="st10" d="M592.63,633.42h-86.31c-0.53,0-0.96,0.43-0.96,0.96l0,6.47c0,0.53,0.43,0.96,0.96,0.96h86.31
				c0.53,0,0.96-0.43,0.96-0.96v-6.47C593.59,633.85,593.16,633.42,592.63,633.42z"/>
			<path class="st10" d="M618.3,534.62l-79.83-64.81c-0.41-0.33-1.02-0.27-1.35,0.14l-4.08,5.03c-0.33,0.41-0.27,1.02,0.14,1.35
				L613,541.14c0.41,0.33,1.02,0.27,1.35-0.14l4.08-5.03C618.77,535.56,618.71,534.95,618.3,534.62z"/>
			<path class="st10" d="M652.22,498.34l-51.25-98.53c-0.24-0.47-0.83-0.65-1.3-0.41l-5.74,2.99c-0.47,0.24-0.65,0.83-0.41,1.3
				l51.25,98.53c0.24,0.47,0.83,0.65,1.3,0.41l5.74-2.99C652.28,499.39,652.47,498.81,652.22,498.34z"/>
			<path class="st10" d="M634.52,519.17l-87.63-113.9c-0.32-0.42-0.93-0.5-1.35-0.18l-5.13,3.95c-0.42,0.32-0.5,0.93-0.18,1.35
				l87.63,113.9c0.32,0.42,0.93,0.5,1.35,0.18l5.13-3.95C634.76,520.19,634.84,519.59,634.52,519.17z"/>
			<path class="st10" d="M594.82,580.25l-84.82-29.01c-0.5-0.17-1.05,0.1-1.22,0.6l-2.09,6.12c-0.17,0.5,0.1,1.05,0.6,1.22
				l84.82,29.01c0.5,0.17,1.05-0.1,1.22-0.6l2.09-6.12C595.59,580.98,595.32,580.43,594.82,580.25z"/>
			<path class="st10" d="M593.33,606.3l-114.37-16.82c-0.52-0.08-1.02,0.29-1.09,0.81l-0.94,6.4c-0.08,0.52,0.29,1.02,0.81,1.09
				l114.37,16.82c0.52,0.08,1.02-0.29,1.09-0.81l0.94-6.4C594.22,606.87,593.85,606.38,593.33,606.3z"/>
		</g>
		<g>
			<path class="st10" d="M852.34,658.36l50.27,7.89c0.52,0.08,0.88,0.58,0.8,1.1l-1,6.39c-0.08,0.52-0.58,0.88-1.1,0.8l-50.27-7.89
				c-0.52-0.08-0.88-0.58-0.8-1.1l1-6.39C851.32,658.64,851.82,658.28,852.34,658.36z"/>
			<path class="st10" d="M845.16,555.82l48.75-28.14c0.46-0.26,1.05-0.11,1.32,0.35l3.24,5.61c0.26,0.46,0.11,1.05-0.35,1.32
				l-48.75,28.14c-0.46,0.26-1.05,0.11-1.32-0.35l-3.24-5.61C844.54,556.67,844.7,556.08,845.16,555.82z"/>
			<path class="st10" d="M772.58,488.1l19.85-71.87c0.14-0.51,0.67-0.81,1.18-0.67l6.24,1.72c0.51,0.14,0.81,0.67,0.67,1.18
				l-19.85,71.87c-0.14,0.51-0.67,0.81-1.18,0.67l-6.24-1.72C772.74,489.14,772.44,488.61,772.58,488.1z"/>
			<path class="st10" d="M746.86,480.75l14.57-121.1c0.06-0.53,0.55-0.9,1.07-0.84l6.43,0.77c0.53,0.06,0.9,0.55,0.84,1.07
				l-14.57,121.1c-0.06,0.53-0.55,0.9-1.07,0.84l-6.43-0.77C747.18,481.76,746.8,481.28,746.86,480.75z"/>
			<path class="st10" d="M854.74,633.42h86.31c0.53,0,0.96,0.43,0.96,0.96v6.47c0,0.53-0.43,0.96-0.96,0.96h-86.31
				c-0.53,0-0.96-0.43-0.96-0.96v-6.47C853.78,633.85,854.21,633.42,854.74,633.42z"/>
			<path class="st10" d="M829.07,534.62l79.83-64.81c0.41-0.33,1.02-0.27,1.35,0.14l4.08,5.03c0.33,0.41,0.27,1.02-0.14,1.35
				l-79.83,64.81c-0.41,0.33-1.02,0.27-1.35-0.14l-4.08-5.03C828.6,535.56,828.66,534.95,829.07,534.62z"/>
			<path class="st10" d="M795.15,498.34l51.25-98.53c0.24-0.47,0.83-0.65,1.3-0.41l5.74,2.99c0.47,0.24,0.65,0.83,0.41,1.3
				l-51.25,98.53c-0.24,0.47-0.83,0.65-1.3,0.41l-5.74-2.99C795.09,499.39,794.9,498.81,795.15,498.34z"/>
			<path class="st10" d="M812.85,519.17l87.63-113.9c0.32-0.42,0.93-0.5,1.35-0.18l5.13,3.95c0.42,0.32,0.5,0.93,0.18,1.35
				l-87.63,113.9c-0.32,0.42-0.93,0.5-1.35,0.18l-5.13-3.95C812.61,520.19,812.53,519.59,812.85,519.17z"/>
			<path class="st10" d="M852.55,580.25l84.82-29.01c0.5-0.17,1.05,0.1,1.22,0.6l2.09,6.12c0.17,0.5-0.1,1.05-0.6,1.22l-84.82,29.01
				c-0.5,0.17-1.05-0.1-1.22-0.6l-2.09-6.12C851.78,580.98,852.05,580.43,852.55,580.25z"/>
			<path class="st10" d="M854.04,606.3l114.37-16.82c0.52-0.08,1.02,0.29,1.09,0.81l0.94,6.4c0.08,0.52-0.29,1.02-0.81,1.09
				l-114.37,16.82c-0.52,0.08-1.02-0.29-1.09-0.81l-0.94-6.4C853.15,606.87,853.52,606.38,854.04,606.3z"/>
		</g>
		<line class="st9" x1="720.45" y1="783.34" x2="720.45" y2="974.43"/>
	</g>
</g>
</svg>
